<svg width="40" height="47" viewBox="0 0 40 47" fill="none" xmlns="http://www.w3.org/2000/svg">
<path d="M29.0617 0.0522575C26.8359 0.309289 23.6859 2.27257 22.1219 4.37257C21.2195 5.57569 20.6891 6.72413 20.2297 8.45226L20 9.31632L20.0109 10.2351C20.0219 10.7382 20.0492 11.2085 20.0766 11.2851C20.1477 11.4655 20.2844 11.4929 21.2469 11.4984C22.0453 11.5038 22.0945 11.4984 22.7781 11.296C24.6047 10.7655 25.9445 9.9671 26.8961 8.83507C27.1258 8.55616 27.4703 8.18429 27.6508 7.99835C28.2523 7.40773 29.0234 6.09523 29.45 4.95773C29.8766 3.81476 30.068 2.75382 30.1227 1.24444L30.1555 0.276476L30.0133 0.134289C29.8547 -0.024305 29.7672 -0.0297737 29.0617 0.0522575Z" fill="#717171"/>
<path d="M28.1484 10.5998C27.0656 10.6545 24.1508 11.4639 22.0562 12.2842C20.7875 12.7818 20.7875 12.7818 20.5359 12.8256C20.0984 12.8967 19.0265 12.585 17.1836 11.8412C16.2047 11.4529 15.1984 11.1576 13.7109 10.8185C13.0875 10.6818 12.0539 10.6654 11.6054 10.7912C11.425 10.8404 10.8562 10.9553 10.3422 11.0428C9.23747 11.2396 8.61403 11.431 7.78278 11.8412C5.27263 13.0662 3.56091 14.8271 2.20466 17.5834C1.6031 18.7975 1.16013 19.9842 0.832002 21.2475C0.345283 23.1232 0.334346 26.7217 0.810127 28.9037C0.864814 29.1717 0.914033 29.4889 0.914033 29.6146C0.914033 29.8771 0.963252 30.074 1.42263 31.8842C1.84919 33.5576 1.80544 33.4209 2.62028 35.4662C3.76325 38.3373 4.12419 38.9717 6.45935 42.1928C7.41638 43.5107 7.9031 44.1123 8.60856 44.8287C9.34685 45.5834 9.94294 46.0209 10.7851 46.4365C11.7367 46.9014 12.1523 47.0053 13.0273 46.9998C14.1484 46.9998 15.0508 46.7701 16.7679 46.0482C17.8508 45.5943 17.9218 45.5725 19.8906 45.1678C20.4812 45.042 21.0281 45.0529 21.8593 45.1896C22.1437 45.2334 22.5703 45.299 22.8 45.3318C23.2648 45.3975 23.7351 45.5506 24.9492 46.0373C26.4148 46.6279 27.4484 46.8904 28.5312 46.956C30.1062 47.0545 31.6265 46.3545 33.2508 44.7959C34.9078 43.1935 36.4554 41.0006 38.0195 38.042C38.4406 37.2435 39.1133 35.6084 39.2281 35.1162C39.2773 34.9193 39.3593 34.6732 39.4195 34.5748C39.4742 34.4764 39.5234 34.3396 39.5234 34.2795C39.5234 34.0826 39.1242 33.7709 38.4187 33.4154C37.0898 32.7318 35.7828 31.5615 34.9023 30.2435C34.2734 29.2975 33.639 27.881 33.4804 27.0443C33.2125 25.6662 33.1359 24.1568 33.289 23.1068C33.3273 22.8334 33.464 22.2592 33.5953 21.8217C34.1586 19.924 34.5468 19.1639 35.4273 18.2232C35.6953 17.9443 35.914 17.6873 35.914 17.6654C35.914 17.5725 37.2539 16.4514 37.582 16.2709C37.7625 16.167 37.9922 16.0084 38.0906 15.91C38.3914 15.6146 38.3476 15.4998 37.5929 14.6139C36.5812 13.4271 35.307 12.4537 33.8086 11.7264C32.8734 11.2725 32.2281 11.0482 31.3258 10.8623C30.4015 10.6654 29.0234 10.5506 28.1484 10.5998Z" fill="#717171"/>
</svg>
